<svg xmlns="http://www.w3.org/2000/svg" width="169.921" height="47.994" viewBox="0 0 169.921 47.994">
    <g>
        <g>
            <g>
                <g fill="#1ba94c">
                    <text font-family="\.AppleSystemUIFont" font-size="29px" font-weight="700" transform="translate(-114 -11.13) translate(-434.079 -1737.1) translate(598 1782)">
                        <tspan x="0" y="0">Zhibang.</tspan>
                    </text>
                    <path fill-rule="evenodd" d="M7.763 24.284a11.67 11.67 0 0 0 11.484 6.178 12.326 12.326 0 0 0 10.1-8.676l4.182-.009a16.745 16.745 0 0 1-12.7 12.836A15.384 15.384 0 0 1 4.867 27.44L-.01 32.756l.028-13.088 12.005-.026zM28.3 10.61a11.673 11.673 0 0 0-11.488-6.178 12.33 12.33 0 0 0-10.1 8.678l-4.182.009A16.75 16.75 0 0 1 15.239.276 15.388 15.388 0 0 1 31.2 7.451l4.872-5.311-.028 13.088-12.005.026 4.261-4.646z" transform="translate(-114 -11.13) translate(-434.079 -1737.1) rotate(-63 1726.716 442.983)" />
                </g>
            </g>
        </g>
    </g>
</svg>
