<svg xmlns="http://www.w3.org/2000/svg" width="197.953" height="34.875" viewBox="0 0 197.953 34.875">
    <path fill="#738f93" d="M34.313 18.408c0 9.949-6.813 17.03-16.875 17.03a17.438 17.438 0 0 1 0-34.875A16.769 16.769 0 0 1 29.13 5.126l-4.746 4.563C18.176 3.7 6.63 8.2 6.63 18a10.923 10.923 0 0 0 10.808 11.011c6.9 0 9.492-4.95 9.9-7.516h-9.9v-6h16.6a15.287 15.287 0 0 1 .275 2.913z" transform="translate(0 -.563)"/>
    <text fill="#738f93" font-family="Roboto-Bold, Roboto" font-size="20px" font-weight="700" transform="translate(45.953 24.438)">
        <tspan x="0" y="0">Google Interview</tspan>
    </text>
</svg>
