<svg xmlns="http://www.w3.org/2000/svg" width="96" height="96" viewBox="0 0 96 96">
    <g transform="translate(-807 -266)">
        <circle cx="48" cy="48" r="48" fill="#b2bac5" transform="translate(807 266)"/>
        <path fill="#39424e" d="M39.923 40.074L28 52 16.074 40.074A16.762 16.762 0 0 0 0 56.8V58a6 6 0 0 0 6 6h44a6 6 0 0 0 6-6v-1.2a16.762 16.762 0 0 0-16.077-16.726zM1.7 9.976l.8.187v7.3a2.888 2.888 0 0 0-.112 5L.437 30.25C.225 31.112.7 32 1.387 32h5.225c.687 0 1.162-.887.95-1.75l-1.95-7.787a2.888 2.888 0 0 0-.112-5v-6.575l8.25 1.987A15.97 15.97 0 1 0 44 20a15.714 15.714 0 0 0-1.75-7.125l12.037-2.9a1.989 1.989 0 0 0 0-3.937L30.486.289a10.737 10.737 0 0 0-4.962 0L1.7 6.026a2 2 0 0 0 0 3.95z" transform="translate(827.003 278.033)"/>
    </g>
</svg>
